<?xml version="1.0" encoding="UTF-8" standalone="no"?>
<svg
   xmlns:dc="http://purl.org/dc/elements/1.1/"
   xmlns:cc="http://creativecommons.org/ns#"
   xmlns:rdf="http://www.w3.org/1999/02/22-rdf-syntax-ns#"
   xmlns:svg="http://www.w3.org/2000/svg"
   xmlns="http://www.w3.org/2000/svg"
   xmlns:sodipodi="http://sodipodi.sourceforge.net/DTD/sodipodi-0.dtd"
   xmlns:inkscape="http://www.inkscape.org/namespaces/inkscape"
   sodipodi:docname="shield.svg"
   inkscape:version="1.0 (4035a4fb49, 2020-05-01)"
   id="svg8"
   version="1.1"
   viewBox="0 0 8.4666665 8.4666669"
   height="32"
   width="32">
  <defs
     id="defs2" />
  <sodipodi:namedview
     inkscape:window-maximized="0"
     inkscape:window-y="0"
     inkscape:window-x="150"
     inkscape:window-height="860"
     inkscape:window-width="1274"
     units="px"
     showgrid="false"
     inkscape:document-rotation="0"
     inkscape:current-layer="layer1"
     inkscape:document-units="px"
     inkscape:cy="18.745026"
     inkscape:cx="11.94733"
     inkscape:zoom="11.2"
     inkscape:pageshadow="2"
     inkscape:pageopacity="0.0"
     borderopacity="1.0"
     bordercolor="#666666"
     pagecolor="#ffffff"
     id="base" />
  <metadata
     id="metadata5">
    <rdf:RDF>
      <cc:Work
         rdf:about="">
        <dc:format>image/svg+xml</dc:format>
        <dc:type
           rdf:resource="http://purl.org/dc/dcmitype/StillImage" />
        <dc:title></dc:title>
      </cc:Work>
    </rdf:RDF>
  </metadata>
  <g
     id="layer1"
     inkscape:groupmode="layer"
     inkscape:label="Layer 1">
    <path
       id="path72"
       d="M 4.1549117,0.08339197 C 4.0446818,0.09786412 3.930391,0.09578637 3.8192564,0.10690651 3.5942655,0.12941873 3.3692901,0.1770154 3.1520398,0.23895214 2.1774901,0.51679047 1.3291547,1.1655215 0.7960036,2.0259975 -0.03923064,3.3740206 -0.00301721,5.1445598 0.88297142,6.4590991 1.1780246,6.8968834 1.5554192,7.2690912 1.9895276,7.568275 2.3863495,7.8417933 2.840499,8.0369638 3.3075873,8.1522331 3.7977014,8.2731506 4.3141025,8.3002077 4.8139418,8.2344675 5.2999456,8.1705692 5.7781311,8.021613 6.2097749,7.7881684 6.5660196,7.5954959 6.8990139,7.3532922 7.183993,7.0649154 7.9159664,6.3241824 8.349575,5.3187313 8.3751176,4.2773414 8.4024205,3.161514 7.9610341,2.0425591 7.1594328,1.2606017 6.6980709,0.81052928 6.1426849,0.47498853 5.5302784,0.27539385 5.2033013,0.16882337 4.8653541,0.11290335 4.5233133,0.08947503 4.4047289,0.08134739 4.2734017,0.06783635 4.1549117,0.08339733 m 0.020465,0.81810395 c 0.077401,-0.009137 0.1599682,-6.3249e-4 0.2374145,0.002761 0.2299645,0.0100746 0.4556722,0.0409174 0.6794967,0.0968735 C 6.0789504,1.247801 6.9030242,1.9694469 7.3009391,2.9019782 7.4835433,3.3298726 7.5677847,3.8009648 7.5564459,4.2650655 7.53651,5.077841 7.2004881,5.8641331 6.639412,6.4509159 6.1222582,6.9917707 5.4029332,7.3487926 4.6583928,7.428531 4.1980461,7.4778532 3.7342734,7.4358449 3.2912127,7.2981169 2.9452017,7.190625 2.6149991,7.0194418 2.3251813,6.8024122 2.0264322,6.5787104 1.7663895,6.3066662 1.5583777,5.9965529 0.95305226,5.0941323 0.83567555,3.9026479 1.2626573,2.9019782 1.42107,2.5307356 1.6451894,2.1908891 1.9241924,1.8991067 2.3565159,1.4469835 2.9253489,1.129806 3.5327203,0.98581406 3.7466312,0.93510541 3.9591254,0.92701279 4.1753771,0.90149881 M 4.1876581,1.7207344 C 3.9993065,1.7454624 3.8163949,1.7554174 3.630962,1.805577 3.1238641,1.9427532 2.6658425,2.2505692 2.3432906,2.6645585 1.8287312,3.3249882 1.6850424,4.2318215 1.9733701,5.0182362 2.0656101,5.269814 2.1992982,5.5045679 2.3661315,5.7141065 2.5102871,5.8951562 2.6831494,6.0572527 2.8736906,6.1888133 3.1105648,6.3523829 3.3727894,6.4763711 3.6514282,6.5496425 3.9634974,6.6316709 4.2897863,6.651408 4.6092727,6.60941 5.4147217,6.5034695 6.1369121,5.9837362 6.4911511,5.2515582 6.6424822,4.9387852 6.7225075,4.5989952 6.7376528,4.2527793 6.7871014,3.1234991 5.9842717,2.068384 4.8917149,1.7952428 4.7286358,1.7544729 4.5640832,1.7302689 4.3964193,1.7229295 4.3282244,1.7199422 4.2557964,1.7117878 4.1876584,1.7207251 m 0.094147,0.8251216 0.040935,0.1187072 0.08461,0.261975 0.1623835,0.503482 0.076382,0.2415081 1.1870728,-0.00412 -0.065494,0.05473 -0.1514538,0.1095748 -0.5116694,0.3702022 -0.1596408,0.1157195 -0.064634,0.05096 0.020961,0.080638 0.069587,0.2128536 0.272904,0.8350446 L 5.0227069,5.3391998 4.5437847,4.9900367 4.3554901,4.8527455 4.2818098,4.804814 4.2081295,4.8529515 4.019835,4.9900779 3.5409124,5.3392008 3.3198712,5.4971222 3.5927632,4.6620776 3.6623498,4.4492241 3.6833107,4.3685863 3.6186851,4.3170495 3.4590441,4.2019027 2.9350947,3.8224655 2.7959208,3.7217919 l -0.065494,-0.054401 1.187073,0.00412 0.076366,-0.2415081 0.1623999,-0.503482 0.084606,-0.261975 z"
       style="fill:#ffffff;stroke:none;stroke-width:0.00409335" />
  </g>
</svg>
